<svg width="34" height="46" viewBox="0 0 34 46" fill="none" xmlns="http://www.w3.org/2000/svg">
<path d="M0 32.6614C0 32.9279 0.0991724 33.1836 0.275702 33.372C0.452231 33.5605 0.691657 33.6664 0.941307 33.6664H33.0587C33.3083 33.6664 33.5478 33.5605 33.7243 33.372C33.9008 33.1836 34 32.9279 34 32.6614V15.0933C34 14.8268 33.9008 14.5712 33.7243 14.3827C33.5478 14.1943 33.3083 14.0884 33.0587 14.0884H0.941307C0.691657 14.0884 0.452231 14.1943 0.275702 14.3827C0.0991724 14.5712 0 14.8268 0 15.0933V32.6614Z" fill="#EFEFF0"/>
<path d="M22.0367 2.68884H11.9106V-6.67572e-06H22.0367V2.68884Z" fill="#ABADAD"/>
<path d="M34 19.4939H0V5.37778H9.49726L9.49695 2.68894L11.9105 8.58307e-05L11.9113 5.37778H22.0363L22.0369 8.58307e-05L24.5555 2.68894L24.5547 5.37778H33.9998L34 19.4939Z" fill="#E3E4E5"/>
<path d="M16.9621 14.8773C16.9621 14.8773 25.5412 14.465 30.0881 23.6698H16.2328C16.2328 23.6698 13.6163 23.578 11.3855 26.9672C10.7424 28.3871 10.0561 29.8527 10.8281 32.7374C9.71277 30.7227 4.90845 21.7924 4.90845 21.7924C4.90845 21.7924 8.29736 15.2434 16.9621 14.8773Z" fill="#E14C40"/>
<path d="M29.6411 38.2481C29.6411 38.2481 25.6851 46.3852 15.9447 45.9854C17.1464 43.765 22.8739 33.1761 22.8739 33.1761C22.8739 33.1761 24.2568 30.803 22.6242 27.0461C21.7942 25.7411 20.9487 24.3737 18.2224 23.6444C20.415 23.6214 30.0604 23.646 30.0604 23.646C30.0604 23.646 33.6771 30.0543 29.6411 38.2482" fill="#FFD24D"/>
<path d="M4.34437 38.3102C4.34437 38.3102 -0.278172 30.5827 4.91711 21.7773L11.842 34.5898C11.842 34.5898 13.0755 37.0547 16.9397 37.4238C18.413 37.309 19.9448 37.2112 21.8993 35.0554C20.8221 37.0937 15.9785 45.9998 15.9785 45.9998C15.9785 45.9998 8.97226 46.1393 4.34437 38.3102Z" fill="#00AA60"/>
<path d="M10.4349 30.5647C10.4349 26.7376 13.341 23.6345 16.9263 23.6345C20.5115 23.6345 23.4173 26.7376 23.4173 30.5647C23.4173 34.3928 20.5115 37.4955 16.9263 37.4955C13.341 37.4955 10.4349 34.3928 10.4349 30.5646" fill="white"/>
<path d="M11.8362 30.5647C11.8362 27.5637 14.1153 25.1306 16.9264 25.1306C19.7367 25.1306 22.0162 27.5637 22.0162 30.5647C22.0162 33.5661 19.7368 35.9991 16.9264 35.9991C14.1153 35.9991 11.8362 33.5659 11.8362 30.5647Z" fill="#577FC0"/>
<path d="M16.962 14.8774C16.962 14.8774 22.6258 14.6053 27.1885 19.4404C27.1135 19.4404 11.6088 19.4937 6.62781 19.4937C8.42936 17.5682 11.7362 15.0984 16.962 14.8775" fill="#D6483E"/>
</svg>
