<svg width="72" height="72" viewBox="0 0 72 72" fill="none" xmlns="http://www.w3.org/2000/svg">
<rect width="72" height="72" rx="8" fill="#39644E"/>
<path d="M49.5983 26.424L51.0767 25.5H49.3333H22.6667H20.9233L22.4017 26.424L35.735 34.7573L36 34.9229L36.265 34.7573L49.5983 26.424ZM49.3333 46.5H49.8333V46V29.3333V28.4312L49.0683 28.9093L36 37.077L22.9317 28.9093L22.1667 28.4312V29.3333V46V46.5H22.6667H49.3333ZM49.3333 23.1666C50.8905 23.1666 52.1667 24.4428 52.1667 26V46C52.1667 47.5571 50.8905 48.8333 49.3333 48.8333H22.6667C21.1095 48.8333 19.8333 47.5571 19.8333 46V26C19.8333 24.4428 21.1095 23.1666 22.6667 23.1666H49.3333Z" fill="#89EF00" stroke="#89EF00"/>
</svg>
