<svg width="72" height="72" viewBox="0 0 72 72" fill="none" xmlns="http://www.w3.org/2000/svg">
<rect width="72" height="72" rx="8" fill="#39644E"/>
<path fill-rule="evenodd" clip-rule="evenodd" d="M44 43.6471V46.8235H45.5C49.6421 46.8235 53 43.2681 53 38.8824C53 34.8879 50.2146 31.5822 46.5882 31.0242C45.3125 26.3442 41.2379 23 36.5 23C32.9802 23 29.7635 24.8504 27.8298 27.8446C23.4005 28.4531 20 32.4639 20 37.2941C20 42.5571 24.0294 46.8235 29 46.8235V43.6471C25.6863 43.6471 23 40.8028 23 37.2941C23 33.8801 25.549 31.0796 28.7595 30.9462L29.586 30.9118L29.9996 30.1534C31.3314 27.7114 33.7886 26.1765 36.5 26.1765C40.1767 26.1765 43.2955 28.9976 43.8964 32.7933L44.1106 34.1465L45.4062 34.1187C45.4296 34.1182 45.4413 34.118 45.453 34.1179C45.4647 34.1178 45.4765 34.1177 45.5 34.1176C47.9853 34.1176 50 36.2509 50 38.8824C50 41.5138 47.9853 43.6471 45.5 43.6471H44ZM38 50V39.5403L41.4393 43.1819L43.5606 40.9358L36.5 33.4598L29.4393 40.9358L31.5607 43.1819L35 39.5403V50H38Z" fill="#89EF00"/>
</svg>
