<svg width="72" height="72" viewBox="0 0 72 72" fill="none" xmlns="http://www.w3.org/2000/svg">
<rect width="72" height="72" rx="8" fill="#39644E"/>
<path fill-rule="evenodd" clip-rule="evenodd" d="M29.9 28.4H26.6V27.05H23.3V31.1H49.7V27.05H46.4V28.4H43.1V27.05H29.9V28.4ZM49.7 33.8H23.3V47.3H49.7V33.8ZM43.1 24.35H29.9V23H26.6V24.35H23.3C21.4775 24.35 20 25.5588 20 27.05V47.3C20 48.7912 21.4775 50 23.3 50H49.7C51.5225 50 53 48.7912 53 47.3V27.05C53 25.5588 51.5225 24.35 49.7 24.35H46.4V23H43.1V24.35ZM28.25 39.2V36.5H31.55V39.2H28.25ZM34.85 39.2H38.15V36.5H34.85V39.2ZM44.75 39.2H41.45V36.5H44.75V39.2ZM28.25 41.9V44.6H31.55V41.9H28.25ZM38.15 44.6H34.85V41.9H38.15V44.6Z" fill="#89EF00"/>
</svg>
