<svg width="72" height="72" viewBox="0 0 72 72" fill="none" xmlns="http://www.w3.org/2000/svg">
<rect width="72" height="72" rx="8" fill="#39644E"/>
<path d="M49.4 27.3667L39.8 20.6501C37.1833 18.8167 33.1667 18.9167 30.65 20.8667L22.3 27.3834C20.6333 28.6834 19.3167 31.3501 19.3167 33.4501V44.9501C19.3167 49.2001 22.7667 52.6667 27.0167 52.6667H44.9833C49.2333 52.6667 52.6833 49.2167 52.6833 44.9667V33.6667C52.6833 31.4167 51.2333 28.6501 49.4 27.3667ZM37.25 46.0001C37.25 46.6834 36.6833 47.2501 36 47.2501C35.3167 47.2501 34.75 46.6834 34.75 46.0001V41.0001C34.75 40.3167 35.3167 39.7501 36 39.7501C36.6833 39.7501 37.25 40.3167 37.25 41.0001V46.0001Z" fill="#89EF00"/>
</svg>
