<svg width="32" height="32" viewBox="0 0 32 32" fill="none" xmlns="http://www.w3.org/2000/svg">
<path d="M31.9102 9.40272C31.8334 7.69896 31.5582 6.53323 31.1677 5.51481C30.758 4.46437 30.2139 3.56765 29.3241 2.68375C28.4343 1.79984 27.5445 1.24259 26.4947 0.839071C25.4769 0.441954 24.3119 0.172938 22.6092 0.0960769C20.9 0.0192154 20.3559 0 16.0158 0C11.6694 0 11.1253 0.0192154 9.42252 0.0960769C7.71978 0.172938 6.55475 0.448359 5.53695 0.839071C4.48074 1.249 3.58456 1.79343 2.70118 2.68375C1.8178 3.57406 1.26089 4.46437 0.857611 5.51481C0.467133 6.53323 0.191878 7.69896 0.115062 9.40272C0.0382468 11.1129 0.019043 11.6573 0.019043 16C0.019043 20.3491 0.0382468 20.8935 0.115062 22.5973C0.191878 24.301 0.467133 25.4668 0.857611 26.4852C1.26729 27.5356 1.8114 28.4323 2.70118 29.3163C3.58456 30.2066 4.48074 30.7574 5.53055 31.1609C6.54835 31.558 7.71338 31.8271 9.41612 31.9039C11.1253 31.9808 11.6694 32 16.0094 32C20.3559 32 20.9 31.9808 22.6028 31.9039C24.3055 31.8271 25.4705 31.5516 26.4883 31.1609C27.5381 30.751 28.4343 30.2066 29.3177 29.3163C30.2011 28.4259 30.758 27.5356 31.1613 26.4852C31.5582 25.4668 31.827 24.301 31.9038 22.5973C31.9806 20.8871 31.9998 20.3427 31.9998 16C31.9998 11.6573 31.987 11.1065 31.9102 9.40272ZM29.036 22.4692C28.9656 24.032 28.7032 24.8839 28.4855 25.4412C28.1975 26.1841 27.8454 26.7222 27.2821 27.2858C26.7188 27.8495 26.1875 28.1889 25.4385 28.49C24.8752 28.7078 24.0238 28.9704 22.4683 29.0408C20.7848 29.1177 20.2791 29.1369 16.003 29.1369C11.727 29.1369 11.2213 29.1177 9.53775 29.0408C7.97583 28.9704 7.12446 28.7078 6.56755 28.49C5.825 28.2018 5.2873 27.8495 4.72398 27.2858C4.16067 26.7222 3.8214 26.1906 3.52054 25.4412C3.3029 24.8775 3.04045 24.0256 2.97003 22.4692C2.89322 20.7846 2.87401 20.2786 2.87401 16C2.87401 11.7214 2.89322 11.2154 2.97003 9.53082C3.04045 7.96797 3.3029 7.11609 3.52054 6.55885C3.8086 5.81585 4.16067 5.27782 4.72398 4.71417C5.2873 4.15052 5.8186 3.81105 6.56755 3.51001C7.13087 3.29223 7.98224 3.02962 9.53775 2.95917C11.2213 2.88231 11.727 2.86309 16.003 2.86309C20.2791 2.86309 20.7848 2.88231 22.4683 2.95917C24.0302 3.02962 24.8816 3.29223 25.4385 3.51001C26.1811 3.79824 26.7188 4.15052 27.2821 4.71417C27.8454 5.27782 28.1847 5.80945 28.4855 6.55885C28.7032 7.1225 28.9656 7.97438 29.036 9.53082C29.1129 11.2154 29.1321 11.7214 29.1321 16C29.1321 20.2786 29.1065 20.7846 29.036 22.4692Z" fill="url(#paint0_linear_293_2233)"/>
<path d="M16.0029 7.77539C11.458 7.77539 7.78369 11.4583 7.78369 15.9996C7.78369 20.5472 11.4644 24.2238 16.0029 24.2238C20.5414 24.2238 24.2222 20.5344 24.2222 15.9996C24.2222 11.4519 20.5478 7.77539 16.0029 7.77539ZM16.0029 21.335C13.0583 21.335 10.6707 18.9459 10.6707 15.9996C10.6707 13.0532 13.0583 10.6641 16.0029 10.6641C18.9475 10.6641 21.3352 13.0532 21.3352 15.9996C21.3352 18.9459 18.9475 21.335 16.0029 21.335Z" fill="url(#paint1_linear_293_2233)"/>
<path d="M24.5425 9.37628C25.6031 9.37628 26.4628 8.51598 26.4628 7.45474C26.4628 6.3935 25.6031 5.5332 24.5425 5.5332C23.4819 5.5332 22.6221 6.3935 22.6221 7.45474C22.6221 8.51598 23.4819 9.37628 24.5425 9.37628Z" fill="#BC30A0"/>
<path d="M0 16C0 20.3491 0.0192038 20.8935 0.0960192 22.5973C0.172835 24.301 0.44809 25.4668 0.838568 26.4852C1.24825 27.5356 1.79236 28.4323 2.68214 29.3163C3.56551 30.2002 4.46169 30.7574 5.5115 31.1609C6.52931 31.558 7.69434 31.8271 9.39708 31.9039C11.1062 31.9808 11.6503 32 15.9904 32C20.3369 32 20.881 31.9808 22.5837 31.9039C24.2865 31.8271 25.4515 31.5516 26.4693 31.1609C27.5191 30.751 28.4153 30.2066 29.2987 29.3163C30.182 28.4323 30.7389 27.5356 31.1422 26.4852C31.5391 25.4668 31.808 24.301 31.8848 22.5973C31.9616 20.8871 31.9808 20.3427 31.9808 16C31.9808 11.6509 31.9616 11.1065 31.8848 9.40272C31.808 7.69896 31.5327 6.53323 31.1422 5.51481C30.7325 4.46437 30.1884 3.56765 29.2987 2.68375C28.4217 1.79343 27.5255 1.24259 26.4757 0.839071C25.4579 0.441954 24.2929 0.172938 22.5901 0.0960769C20.881 0.0192154 20.3369 0 15.9968 0C11.6503 0 11.1062 0.0192154 9.40348 0.0960769C7.70074 0.172938 6.53571 0.448359 5.5179 0.839071C4.46809 1.249 3.57191 1.79343 2.68854 2.68375C1.80516 3.57406 1.24825 4.46437 0.844969 5.51481C0.44809 6.53323 0.172835 7.69896 0.0960192 9.40272C0.0192038 11.1065 0 11.6509 0 16ZM2.88698 16C2.88698 11.7278 2.90618 11.2154 2.983 9.53082C3.05341 7.96797 3.31586 7.11609 3.53351 6.55885C3.82156 5.81585 4.17363 5.27782 4.73695 4.71417C5.30026 4.15052 5.83157 3.81105 6.58052 3.51001C7.14383 3.29223 7.9952 3.02962 9.55071 2.95917C11.2342 2.88231 11.7399 2.86309 16.016 2.86309C20.2921 2.86309 20.7978 2.88231 22.4813 2.95917C24.0432 3.02962 24.8946 3.29223 25.4515 3.51001C26.194 3.79824 26.7317 4.15052 27.2951 4.71417C27.8584 5.27782 28.1976 5.80945 28.4985 6.55885C28.7161 7.1225 28.9786 7.97438 29.049 9.53082C29.1258 11.2154 29.145 11.7214 29.145 16C29.145 20.2786 29.1258 20.7846 29.049 22.4692C28.9786 24.032 28.7161 24.8839 28.4985 25.4412C28.2104 26.1841 27.8584 26.7222 27.2951 27.2858C26.7317 27.8495 26.2004 28.1889 25.4515 28.49C24.8882 28.7078 24.0368 28.9704 22.4813 29.0408C20.7978 29.1177 20.2921 29.1369 16.016 29.1369C11.7399 29.1369 11.2342 29.1177 9.55071 29.0408C7.9888 28.9704 7.13743 28.7078 6.58052 28.49C5.83797 28.2018 5.30026 27.8495 4.73695 27.2858C4.17363 26.7222 3.83437 26.1906 3.53351 25.4412C3.31586 24.8775 3.05341 24.0256 2.983 22.4692C2.89978 20.7846 2.88698 20.2722 2.88698 16Z" fill="url(#paint2_linear_293_2233)"/>
<defs>
<linearGradient id="paint0_linear_293_2233" x1="27.0605" y1="2.44694" x2="3.91056" y2="30.8102" gradientUnits="userSpaceOnUse">
<stop stop-color="#AE3DAE"/>
<stop offset="0.0468721" stop-color="#B23BA6"/>
<stop offset="0.1216" stop-color="#BD368E"/>
<stop offset="0.2148" stop-color="#CE2E69"/>
<stop offset="0.3216" stop-color="#E62335"/>
<stop offset="0.418" stop-color="#FF1800"/>
</linearGradient>
<linearGradient id="paint1_linear_293_2233" x1="19.9227" y1="9.40338" x2="11.5129" y2="23.5348" gradientUnits="userSpaceOnUse">
<stop stop-color="#E12F6A"/>
<stop offset="0.1705" stop-color="#EA3751"/>
<stop offset="0.3563" stop-color="#F13D3E"/>
<stop offset="0.5467" stop-color="#F64133"/>
<stop offset="0.7469" stop-color="#F7422F"/>
<stop offset="0.7946" stop-color="#F74C2F"/>
<stop offset="0.8743" stop-color="#F7652F"/>
<stop offset="0.9757" stop-color="#F78F2E"/>
<stop offset="1" stop-color="#F79A2E"/>
</linearGradient>
<linearGradient id="paint2_linear_293_2233" x1="23.2508" y1="-1.31737" x2="9.08519" y2="32.4484" gradientUnits="userSpaceOnUse">
<stop offset="0.2341" stop-color="#9E35A5" stop-opacity="0"/>
<stop offset="0.4512" stop-color="#D42F7F" stop-opacity="0.5"/>
<stop offset="0.7524" stop-color="#F7772E"/>
<stop offset="0.9624" stop-color="#FEF780"/>
</linearGradient>
</defs>
</svg>
