<svg width="1728" height="1117" viewBox="0 0 1728 1117" fill="none" xmlns="http://www.w3.org/2000/svg">
<line y1="-1.5" x2="1189.19" y2="-1.5" transform="matrix(0.00924223 0.999957 -0.999908 0.0135333 859.838 -38.9023)" stroke="#E5E8DB" stroke-opacity="0.12" stroke-width="3"/>
<line y1="-1.5" x2="1499.92" y2="-1.5" transform="matrix(0.42474 0.905315 -0.891902 0.452228 968.833 -38.8994)" stroke="#E5E8DB" stroke-opacity="0.12" stroke-width="3"/>
<line y1="-1.5" x2="1499.92" y2="-1.5" transform="matrix(0.42474 -0.905315 -0.891902 -0.452228 154.14 1229.9)" stroke="#E5E8DB" stroke-opacity="0.12" stroke-width="3"/>
<line y1="-1.5" x2="856.628" y2="-1.5" transform="matrix(0.818768 0.574125 -0.544297 0.838893 1193.16 -38.8994)" stroke="#E5E8DB" stroke-opacity="0.12" stroke-width="3"/>
<line y1="-1.5" x2="856.608" y2="-1.5" transform="matrix(0.818926 -0.5739 -0.544521 -0.838747 -154.879 437.16)" stroke="#E5E8DB" stroke-opacity="0.12" stroke-width="3"/>
<line y1="-1.5" x2="1114.39" y2="-1.5" transform="matrix(0.693254 0.720694 -0.693254 0.720694 1078.1 -38.8994)" stroke="#E5E8DB" stroke-opacity="0.12" stroke-width="3"/>
<line y1="-1.5" x2="1114.39" y2="-1.5" transform="matrix(0.693254 -0.720694 -0.693254 -0.720694 -131.356 762.264)" stroke="#E5E8DB" stroke-opacity="0.12" stroke-width="3"/>
<line x1="-374.905" y1="14.2363" x2="1727.97" y2="14.2363" stroke="#879E46" stroke-opacity="0.22" stroke-width="3"/>
<line x1="-374.905" y1="37.9834" x2="1727.97" y2="37.9834" stroke="#879E46" stroke-opacity="0.22" stroke-width="3"/>
<line x1="-374.905" y1="65.1885" x2="1727.97" y2="65.1885" stroke="#879E46" stroke-opacity="0.22" stroke-width="3"/>
<line x1="-374.905" y1="97.9248" x2="1727.97" y2="97.9248" stroke="#879E46" stroke-opacity="0.22" stroke-width="3"/>
<line x1="-374.905" y1="135.74" x2="1727.97" y2="135.74" stroke="#879E46" stroke-opacity="0.22" stroke-width="3"/>
<path d="M-374.905 180.928L1727.97 180.928" stroke="#879E46" stroke-opacity="0.22" stroke-width="3"/>
<line x1="-374.905" y1="235.335" x2="1727.97" y2="235.335" stroke="#879E46" stroke-opacity="0.22" stroke-width="3"/>
<line x1="-374.905" y1="304.271" x2="1727.97" y2="304.271" stroke="#879E46" stroke-opacity="0.22" stroke-width="3"/>
<path d="M-388.905 389.575L1846.5 389.575" stroke="#879E46" stroke-opacity="0.22" stroke-width="3"/>
<line x1="-374.905" y1="509.34" x2="1727.97" y2="509.34" stroke="#879E46" stroke-opacity="0.22" stroke-width="3"/>
<line x1="-377" y1="890.5" x2="1725.87" y2="890.5" stroke="#879E46" stroke-opacity="0.22" stroke-width="3"/>
<line x1="-374.905" y1="688.086" x2="1727.97" y2="688.086" stroke="#879E46" stroke-opacity="0.22" stroke-width="3"/>
</svg>
