<svg width="32" height="32" viewBox="0 0 32 32" fill="none" xmlns="http://www.w3.org/2000/svg">
<rect width="32" height="32" rx="16" fill="#0A66C2"/>
<g clip-path="url(#clip0_293_2234)">
<path d="M6.6665 9.15606C6.6665 8.55544 6.87672 8.05995 7.29713 7.66957C7.71755 7.27917 8.26411 7.08398 8.93677 7.08398C9.59744 7.08398 10.132 7.27616 10.5404 7.66056C10.9608 8.05696 11.171 8.57346 11.171 9.21011C11.171 9.78669 10.9668 10.2672 10.5584 10.6516C10.138 11.0479 9.58542 11.2461 8.90074 11.2461H8.88272C8.22205 11.2461 7.68753 11.0479 7.27912 10.6516C6.8707 10.2552 6.6665 9.75665 6.6665 9.15606ZM6.90074 24.9218V12.8858H10.9007V24.9218H6.90074ZM13.117 24.9218H17.117V18.2011C17.117 17.7807 17.165 17.4563 17.2611 17.2281C17.4293 16.8197 17.6845 16.4744 18.0269 16.1921C18.3692 15.9098 18.7986 15.7687 19.3152 15.7687C20.6605 15.7687 21.3332 16.6756 21.3332 18.4894V24.9218H25.3332V18.0209C25.3332 16.2431 24.9128 14.8948 24.0719 13.9759C23.2311 13.057 22.12 12.5975 20.7386 12.5975C19.189 12.5975 17.9818 13.2642 17.117 14.5975V14.6335H17.0989L17.117 14.5975V12.8858H13.117C13.141 13.2702 13.153 14.4654 13.153 16.4714C13.153 18.4774 13.141 21.2942 13.117 24.9218Z" fill="white"/>
</g>
<defs>
<clipPath id="clip0_293_2234">
<rect x="6.6665" y="6.66602" width="18.6667" height="18.6667" fill="white"/>
</clipPath>
</defs>
</svg>
