<svg width="72" height="72" viewBox="0 0 72 72" fill="none" xmlns="http://www.w3.org/2000/svg">
<rect width="72" height="72" rx="8" fill="#39644E"/>
<path fill-rule="evenodd" clip-rule="evenodd" d="M47.3333 46.8334V51.3334H49.4583C55.3263 51.3334 60.0833 46.2966 60.0833 40.0834C60.0833 34.4245 56.1373 29.7415 50.9999 28.9509C49.1927 22.321 43.4204 17.5834 36.7083 17.5834C31.7219 17.5834 27.165 20.2048 24.4256 24.4465C18.1508 25.3087 13.3333 30.9906 13.3333 37.8334C13.3333 45.2892 19.0417 51.3334 26.0833 51.3334V46.8334C21.3889 46.8334 17.5833 42.8039 17.5833 37.8334C17.5833 32.9969 21.1944 29.0295 25.7426 28.8404L26.9135 28.7918L27.4994 27.7173C29.3862 24.2578 32.8672 22.0834 36.7083 22.0834C41.917 22.0834 46.3353 26.08 47.1866 31.4572L47.4901 33.3743L49.3255 33.3348C49.3585 33.3342 49.3751 33.3339 49.3917 33.3337C49.4083 33.3336 49.425 33.3335 49.4583 33.3334C52.9791 33.3334 55.8333 36.3555 55.8333 40.0834C55.8333 43.8113 52.9791 46.8334 49.4583 46.8334H47.3333ZM38.8333 55.8334V41.0154L43.7057 46.1744L46.7109 42.9924L36.7083 32.4015L26.7057 42.9924L29.7109 46.1744L34.5833 41.0154V55.8334H38.8333Z" fill="#89EF00"/>
</svg>
