<svg width="72" height="72" viewBox="0 0 72 72" fill="none" xmlns="http://www.w3.org/2000/svg">
<rect width="72" height="72" rx="8" fill="#39644E"/>
<path d="M43.9166 21.9334V19.3334C43.9166 18.65 43.35 18.0834 42.6666 18.0834C41.9833 18.0834 41.4166 18.65 41.4166 19.3334V21.8334H30.5833V19.3334C30.5833 18.65 30.0166 18.0834 29.3333 18.0834C28.65 18.0834 28.0833 18.65 28.0833 19.3334V21.9334C23.5833 22.35 21.4 25.0334 21.0666 29.0167C21.0333 29.5 21.4333 29.9 21.9 29.9H50.1C50.5833 29.9 50.9833 29.4834 50.9333 29.0167C50.6 25.0334 48.4166 22.35 43.9166 21.9334Z" fill="#89EF00"/>
<path d="M49.3333 32.3999H22.6667C21.75 32.3999 21 33.1499 21 34.0666V44.3332C21 49.3332 23.5 52.6666 29.3333 52.6666H42.6667C48.5 52.6666 51 49.3332 51 44.3332V34.0666C51 33.1499 50.25 32.3999 49.3333 32.3999ZM31.35 46.3499C31.2667 46.4166 31.1833 46.4999 31.1 46.5499C31 46.6166 30.9 46.6666 30.8 46.6999C30.7 46.7499 30.6 46.7832 30.5 46.7999C30.3833 46.8166 30.2833 46.8332 30.1667 46.8332C29.95 46.8332 29.7333 46.7832 29.5333 46.6999C29.3167 46.6166 29.15 46.4999 28.9833 46.3499C28.6833 46.0332 28.5 45.5999 28.5 45.1666C28.5 44.7332 28.6833 44.2999 28.9833 43.9832C29.15 43.8332 29.3167 43.7166 29.5333 43.6332C29.8333 43.4999 30.1667 43.4666 30.5 43.5332C30.6 43.5499 30.7 43.5832 30.8 43.6332C30.9 43.6666 31 43.7166 31.1 43.7832C31.1833 43.8499 31.2667 43.9166 31.35 43.9832C31.65 44.2999 31.8333 44.7332 31.8333 45.1666C31.8333 45.5999 31.65 46.0332 31.35 46.3499ZM31.35 40.5166C31.0333 40.8166 30.6 40.9999 30.1667 40.9999C29.7333 40.9999 29.3 40.8166 28.9833 40.5166C28.6833 40.1999 28.5 39.7666 28.5 39.3332C28.5 38.8999 28.6833 38.4666 28.9833 38.1499C29.45 37.6832 30.1833 37.5332 30.8 37.7999C31.0167 37.8832 31.2 37.9999 31.35 38.1499C31.65 38.4666 31.8333 38.8999 31.8333 39.3332C31.8333 39.7666 31.65 40.1999 31.35 40.5166ZM37.1833 46.3499C36.8667 46.6499 36.4333 46.8332 36 46.8332C35.5667 46.8332 35.1333 46.6499 34.8167 46.3499C34.5167 46.0332 34.3333 45.5999 34.3333 45.1666C34.3333 44.7332 34.5167 44.2999 34.8167 43.9832C35.4333 43.3666 36.5667 43.3666 37.1833 43.9832C37.4833 44.2999 37.6667 44.7332 37.6667 45.1666C37.6667 45.5999 37.4833 46.0332 37.1833 46.3499ZM37.1833 40.5166C37.1 40.5832 37.0167 40.6499 36.9333 40.7166C36.8333 40.7832 36.7333 40.8332 36.6333 40.8666C36.5333 40.9166 36.4333 40.9499 36.3333 40.9666C36.2167 40.9832 36.1167 40.9999 36 40.9999C35.5667 40.9999 35.1333 40.8166 34.8167 40.5166C34.5167 40.1999 34.3333 39.7666 34.3333 39.3332C34.3333 38.8999 34.5167 38.4666 34.8167 38.1499C34.9667 37.9999 35.15 37.8832 35.3667 37.7999C35.9833 37.5332 36.7167 37.6832 37.1833 38.1499C37.4833 38.4666 37.6667 38.8999 37.6667 39.3332C37.6667 39.7666 37.4833 40.1999 37.1833 40.5166ZM43.0167 46.3499C42.7 46.6499 42.2667 46.8332 41.8333 46.8332C41.4 46.8332 40.9667 46.6499 40.65 46.3499C40.35 46.0332 40.1667 45.5999 40.1667 45.1666C40.1667 44.7332 40.35 44.2999 40.65 43.9832C41.2667 43.3666 42.4 43.3666 43.0167 43.9832C43.3167 44.2999 43.5 44.7332 43.5 45.1666C43.5 45.5999 43.3167 46.0332 43.0167 46.3499ZM43.0167 40.5166C42.9333 40.5832 42.85 40.6499 42.7667 40.7166C42.6667 40.7832 42.5667 40.8332 42.4667 40.8666C42.3667 40.9166 42.2667 40.9499 42.1667 40.9666C42.05 40.9832 41.9333 40.9999 41.8333 40.9999C41.4 40.9999 40.9667 40.8166 40.65 40.5166C40.35 40.1999 40.1667 39.7666 40.1667 39.3332C40.1667 38.8999 40.35 38.4666 40.65 38.1499C40.8167 37.9999 40.9833 37.8832 41.2 37.7999C41.5 37.6666 41.8333 37.6332 42.1667 37.6999C42.2667 37.7166 42.3667 37.7499 42.4667 37.7999C42.5667 37.8332 42.6667 37.8832 42.7667 37.9499C42.85 38.0166 42.9333 38.0832 43.0167 38.1499C43.3167 38.4666 43.5 38.8999 43.5 39.3332C43.5 39.7666 43.3167 40.1999 43.0167 40.5166Z" fill="#89EF00"/>
</svg>
